<svg id="Capa_1" enable-background="new 0 0 512 512" height="512" viewBox="0 0 512 512" width="512" xmlns="http://www.w3.org/2000/svg"><g><g><g><g><g><g><g><g><circle cx="256" cy="256" fill="#ffce00" r="256"/></g></g></g></g></g></g></g><path d="m510.625 282.694-115.796-115.795-268.788 264.524 74.568 74.568c17.837 3.935 36.372 6.009 55.391 6.009 132.371 0 241.276-100.466 254.625-229.306z" fill="#ffa300"/><g><g><path d="m301.474 73.544h-157.23c-14.953 0-27.074 12.122-27.074 27.074v310.764c0 14.953 12.121 27.074 27.074 27.074h223.51c14.953 0 27.074-12.122 27.074-27.074v-244.483l-55.459-38.916z" fill="#06b26b"/></g><g><path d="m301.474 73.544h-45.354v364.913h111.635c14.953 0 27.074-12.122 27.074-27.074v-244.484l-52.853-40.219z" fill="#0a9154"/></g><g><path d="m301.474 139.824c0 14.953 12.121 27.074 27.074 27.074h66.281l-93.355-93.355z" fill="#06b26b"/></g></g><g><path d="m163.981 219.406v179.786h184.037v-179.786zm154.038 50.621h-47.019v-20.621h47.019zm-47.019 30h47.019v18.545h-47.019zm-30 18.545h-47.019v-18.545h47.019zm0-69.166v20.621h-47.019v-20.621zm-47.019 99.166h47.019v20.621h-47.019zm77.019 20.621v-20.621h47.019v20.621z" fill="#fff"/><path d="m256.121 219.406v179.786h91.898v-179.786zm61.898 30v20.621h-47.019v-20.621zm-47.019 50.621h47.019v18.545h-47.019zm0 69.166v-20.621h47.019v20.621z" fill="#e9edf5"/></g></g></svg>